<svg width="164" height="43" fill="none" xmlns="http://www.w3.org/2000/svg"><g clip-path="url(#a)"><path d="M34.8 42.78H7.98A7.98 7.98 0 0 1 0 34.8V7.98C0 3.58 3.57 0 7.98 0H34.8c4.4 0 7.98 3.57 7.98 7.98V34.8c0 4.4-3.58 7.98-7.98 7.98Z" fill="#292F36"/><path d="M29.1 21.78a5.2 5.2 0 0 1 1.14 3.33c0 1.85-.61 3.3-1.85 4.34-1.23 1.02-3 1.56-5.3 1.56H13.04V9.4h9.8c2.21 0 3.9.48 5.1 1.44 1.2.95 1.8 2.32 1.8 4.09a4.75 4.75 0 0 1-3.77 4.95c1.33.32 2.36.95 3.12 1.9Zm-10.84-3.55h3.42c1.82 0 2.73-.77 2.73-2.32 0-1.55-.93-2.33-2.79-2.33h-3.36v4.65Zm6.63 6.15c0-.77-.25-1.38-.76-1.81a3.24 3.24 0 0 0-2.17-.66h-3.69v4.86H22c1.92-.01 2.9-.8 2.9-2.39Z" fill="#fff"/><path d="m67.56 31-4.67-8.15H61.7V31h-5.23V9.4h8.92c1.71 0 3.16.29 4.34.88 1.18.6 2.07 1.4 2.66 2.43.6 1.03.89 2.2.89 3.54 0 1.57-.44 2.9-1.3 4a6.66 6.66 0 0 1-3.78 2.27l5.14 8.5h-5.78v-.01ZM61.7 19.29h3.23c1.04 0 1.8-.23 2.3-.7.48-.45.73-1.13.73-2.03 0-.86-.25-1.52-.75-2.02-.5-.49-1.26-.74-2.28-.74H61.7v5.49ZM96.93 27.07h-8.1l-1.34 3.95h-5.5l7.92-21.46h6.02l7.92 21.46h-5.56l-1.36-3.95ZM95.6 23.1l-2.69-7.94-2.72 7.94h5.4ZM132.7 31h-5.23l-8.74-13.26V31h-5.23V9.4h5.23l8.74 13.39V9.39h5.23v21.62ZM162.02 25.8a9.63 9.63 0 0 1-3.9 3.84c-1.72.92-3.71 1.38-6.01 1.38h-8.16V9.41h8.16c2.32 0 4.33.45 6.01 1.34 1.7.9 3 2.16 3.9 3.8.91 1.63 1.36 3.49 1.36 5.62 0 2.1-.46 3.98-1.36 5.63Zm-5.63-1.09c1.13-1.08 1.7-2.6 1.7-4.55 0-1.96-.57-3.48-1.7-4.55-1.12-1.08-2.7-1.63-4.75-1.63h-2.47v12.35h2.47c2.04 0 3.63-.53 4.75-1.62Z" fill="#292F36"/></g><defs><clipPath id="a"><path fill="#fff" d="M0 0h164v43H0z"/></clipPath></defs></svg>