<svg width="117" height="48" fill="none" xmlns="http://www.w3.org/2000/svg"><g clip-path="url(#a)" fill="#292F36"><path d="M0 29.2V0h17.2v29.2H0Zm15.12-6.79.44-3.23-1.6-.15-.48 2.48c-1 .5-2.23.74-3.7.74-2 0-3.58-.62-4.74-1.9-1.17-1.26-1.74-2.94-1.74-5.02 0-2.03.57-3.7 1.7-5.01a5.58 5.58 0 0 1 4.45-1.97c.94 0 1.74.11 2.38.33.65.21 1.23.5 1.79.87l.47 2.45 1.63-.15-.47-3.23A8.52 8.52 0 0 0 12.8 7.2a9.94 9.94 0 0 0-3.5-.54 7.3 7.3 0 0 0-4.23 1.22 8.29 8.29 0 0 0-2.77 3.2 9.7 9.7 0 0 0-.99 4.33c0 2.44.76 4.48 2.27 6.11a7.7 7.7 0 0 0 5.93 2.44c2.4 0 4.27-.51 5.6-1.54ZM23.04 29.2V0h7.4v29.2h-7.4Zm.78-5.5h5.84v-1.47h-2.01V5.93H23.8v1.46h2.04v14.84h-2.02v1.47ZM36.27 29.2V0h13v29.2h-13Zm2.36-16.12-.42 2.65 1.5.19.44-1.99a4.97 4.97 0 0 1 2.23-.47c1.03 0 1.73.26 2.09.77.35.52.52 1.19.52 2.01v1.03a19.3 19.3 0 0 0-1-.07l-1.04-.03c-1.28 0-2.51.23-3.65.69-1.14.45-1.71 1.41-1.71 2.85 0 1.23.38 2.07 1.17 2.53.78.47 1.55.7 2.3.7a3.9 3.9 0 0 0 2.4-.73 5.62 5.62 0 0 0 1.53-1.66v.06c.03 1.56.73 2.33 2.1 2.33.53 0 1.03-.13 1.5-.39l-.03-1.18c-.23.1-.48.16-.77.16-.66 0-.98-.42-.98-1.25v-5.46c0-2.57-1.37-3.86-4.11-3.86-.76 0-1.48.09-2.15.26-.68.18-1.32.47-1.92.86Zm6.35 6.3a3 3 0 0 1-1.16 2.25c-.7.55-1.44.82-2.24.82-.5 0-.98-.14-1.44-.41-.47-.27-.7-.79-.7-1.53 0-.9.36-1.47 1.04-1.74a6.4 6.4 0 0 1 2.34-.4c.39 0 .76.02 1.12.06.35.03.71.06 1.02.07v.88h.02ZM55.11 29.2V0h11.8v29.2h-11.8Zm10.57-8.83c0-.91-.25-1.58-.73-2.03a3.94 3.94 0 0 0-1.79-.91c-.7-.17-1.4-.31-2.1-.43-.7-.11-1.3-.3-1.8-.54-.48-.24-.72-.67-.72-1.29 0-.58.23-1.01.7-1.3a3.37 3.37 0 0 1 1.78-.4c.85 0 1.63.18 2.36.56l.28 1.86 1.5-.19-.28-2.68a8.1 8.1 0 0 0-4.01-1.06c-1.06 0-2.03.26-2.93.76-.9.5-1.34 1.35-1.34 2.58 0 .9.24 1.56.73 1.97.48.43 1.08.72 1.8.89.74.17 1.45.31 2.16.44a5.8 5.8 0 0 1 1.8.57c.49.26.73.7.73 1.34 0 .66-.31 1.14-.94 1.46a5.73 5.73 0 0 1-4.71-.1l.07-1.53-1.44-.16-.36 2.62a9.27 9.27 0 0 0 4.37 1.14c1.38 0 2.54-.32 3.47-.96.93-.61 1.4-1.5 1.4-2.61ZM72.76 29.2V0h11.8v29.2h-11.8Zm10.56-8.83c0-.91-.24-1.58-.73-2.03a3.94 3.94 0 0 0-1.78-.91c-.72-.17-1.42-.31-2.11-.43-.7-.11-1.3-.3-1.79-.54-.48-.24-.73-.67-.73-1.29 0-.58.23-1.01.7-1.3a3.37 3.37 0 0 1 1.79-.4c.84 0 1.62.18 2.35.56l.29 1.86 1.5-.19-.29-2.68a8.1 8.1 0 0 0-4.01-1.06c-1.06 0-2.03.26-2.93.76-.9.5-1.34 1.35-1.34 2.58 0 .9.24 1.56.73 1.97.49.43 1.08.72 1.81.89.73.17 1.44.31 2.16.44a5.8 5.8 0 0 1 1.8.57c.48.26.72.7.72 1.34 0 .66-.3 1.14-.94 1.46a5.73 5.73 0 0 1-4.71-.1l.07-1.53-1.44-.16-.36 2.62a9.27 9.27 0 0 0 4.37 1.14c1.39 0 2.54-.32 3.47-.96.93-.61 1.4-1.5 1.4-2.61ZM90.4 29.2V0h7.78v29.2H90.4Zm1.14-5.5h5.84v-1.47h-2.01V12.2H91.5v1.48h2.07v8.55h-2.01v1.47h-.02Zm1.83-16.82v2.36h1.97V6.88h-1.97ZM104.02 29.2V0h12.43v29.2h-12.43Zm11.32-9.37-1.56-.35c-.34 1.95-1.38 2.92-3.1 2.92-1.14 0-2-.39-2.6-1.16-.6-.77-.9-1.86-.9-3.23 0-1.24.26-2.3.8-3.18.52-.88 1.4-1.31 2.63-1.31.95 0 1.77.21 2.46.64l.44 1.94 1.5-.18-.44-2.77a5.34 5.34 0 0 0-1.84-.93 8.12 8.12 0 0 0-2.1-.26c-1.79 0-3.14.63-4.03 1.89a7.16 7.16 0 0 0-1.34 4.26c0 1.85.47 3.29 1.43 4.3a4.9 4.9 0 0 0 3.8 1.54c1.58 0 2.75-.44 3.5-1.31a5.73 5.73 0 0 0 1.35-2.81ZM7.44 45.15c-.33.6-.82 1.07-1.44 1.4-.65.33-1.4.5-2.29.5H1.16V39H3.7c.89 0 1.66.16 2.29.48.62.33 1.1.79 1.44 1.4.33.62.48 1.32.48 2.14 0 .82-.15 1.53-.48 2.13Zm-1.42.16c.56-.55.83-1.3.83-2.29 0-.98-.27-1.74-.83-2.28-.55-.54-1.35-.81-2.4-.81H2.16v6.2h1.44c1.06 0 1.86-.28 2.41-.82ZM13.22 39.84v2.76h3.05v.8h-3.05v2.8h3.4v.85h-4.44V39h4.44v.84h-3.4ZM25.64 46.02c-.19.33-.46.6-.83.8a3.5 3.5 0 0 1-2.81.03c-.42-.2-.75-.46-1-.8a2.37 2.37 0 0 1-.43-1.16h1.11a1.6 1.6 0 0 0 .8 1.21c.25.15.54.22.9.22.46 0 .82-.11 1.06-.37.24-.26.37-.56.37-.94 0-.33-.09-.6-.26-.8a1.9 1.9 0 0 0-.63-.49c-.24-.11-.6-.24-1.02-.38-.52-.17-.92-.33-1.23-.47a1.96 1.96 0 0 1-1.11-1.84 1.95 1.95 0 0 1 1.17-1.86 3.2 3.2 0 0 1 1.32-.26c.79 0 1.43.19 1.89.57.47.39.73.87.81 1.47h-1.11c-.06-.31-.23-.6-.49-.84a1.56 1.56 0 0 0-1.08-.37c-.42 0-.76.11-1 .33-.26.21-.37.53-.37.91 0 .32.08.57.24.76.17.2.37.34.61.46.25.11.59.22 1 .37.52.17.93.33 1.26.48.31.16.58.39.8.69.21.3.33.71.33 1.22a2.5 2.5 0 0 1-.3 1.06ZM31.2 39v8.05h-1.04V39h1.04ZM41.74 39.61c.64.47 1.07 1.1 1.28 1.9h-1.1a2.4 2.4 0 0 0-.95-1.17c-.44-.3-.97-.44-1.59-.44-.54 0-1.04.13-1.47.38-.43.26-.77.62-1.02 1.09a3.6 3.6 0 0 0-.38 1.67c0 .65.13 1.23.38 1.7.24.47.6.84 1.04 1.1.44.25.95.38 1.54.38.5 0 .94-.11 1.36-.31.4-.22.74-.53 1-.93.28-.4.42-.89.48-1.43h-3.17v-.77h4.04v.96a4.09 4.09 0 0 1-.6 1.74c-.33.53-.77.93-1.33 1.23-.55.3-1.18.45-1.9.45-.77 0-1.45-.17-2.05-.51a3.5 3.5 0 0 1-1.39-1.46 4.46 4.46 0 0 1-.5-2.12c0-.8.18-1.52.5-2.13.33-.61.8-1.11 1.39-1.46a3.99 3.99 0 0 1 2.04-.52 3.8 3.8 0 0 1 2.4.65ZM53.72 47.05h-1.05l-4.18-6.37v6.37h-1.04V39h1.04l4.18 6.36V39h1.05v8.05ZM68.73 46.02c-.18.33-.45.6-.83.8a3.5 3.5 0 0 1-2.81.03c-.41-.2-.74-.46-1-.8a2.37 2.37 0 0 1-.43-1.16h1.12a1.6 1.6 0 0 0 .8 1.21c.24.15.54.22.9.22.45 0 .81-.11 1.05-.37.25-.26.37-.56.37-.94 0-.33-.08-.6-.25-.8a1.9 1.9 0 0 0-.63-.49c-.24-.11-.6-.24-1.03-.38a12.7 12.7 0 0 1-1.23-.47 1.96 1.96 0 0 1-1.11-1.84 1.95 1.95 0 0 1 1.17-1.86 3.2 3.2 0 0 1 1.33-.26c.78 0 1.43.19 1.88.57.47.39.73.87.82 1.47h-1.12c-.05-.31-.23-.6-.48-.84a1.56 1.56 0 0 0-1.09-.37c-.41 0-.75.11-1 .33-.25.21-.37.53-.37.91 0 .32.09.57.24.76.18.2.38.34.62.46.24.11.58.22 1 .37.51.17.93.33 1.25.48.32.16.59.39.8.69.22.3.33.71.33 1.22a2.5 2.5 0 0 1-.3 1.06ZM78.2 39v.84h-2.27v7.2h-1.06v-7.2H72.6V39h5.6ZM83.05 39v4.82c0 .79.17 1.37.53 1.76.35.37.83.57 1.45.57a1.8 1.8 0 0 0 1.43-.57c.34-.39.51-.96.51-1.74V39h1.05v4.83c0 1.1-.27 1.92-.82 2.47a2.9 2.9 0 0 1-2.18.82 2.9 2.9 0 0 1-2.17-.82c-.54-.56-.81-1.37-.81-2.47V39h1V39ZM98.77 45.15c-.33.6-.82 1.07-1.45 1.4-.64.33-1.4.5-2.28.5h-2.56V39h2.56c.88 0 1.66.16 2.28.48.63.33 1.12.79 1.45 1.4.32.62.48 1.32.48 2.14 0 .82-.16 1.53-.48 2.13Zm-1.4.16c.55-.55.82-1.3.82-2.29 0-.98-.27-1.74-.82-2.28-.56-.54-1.36-.81-2.42-.81h-1.44v6.2h1.44c1.05 0 1.86-.28 2.42-.82ZM104.56 39v8.05h-1.04V39h1.04ZM114.78 39.43c.6.35 1.07.84 1.41 1.47.35.62.52 1.34.52 2.12 0 .79-.17 1.5-.52 2.13a3.8 3.8 0 0 1-3.42 2 3.9 3.9 0 0 1-3.46-2 4.39 4.39 0 0 1-.5-2.13c0-.78.16-1.5.5-2.12.35-.63.82-1.12 1.43-1.47a3.94 3.94 0 0 1 2.03-.53c.74 0 1.41.17 2.01.53Zm-3.51.82c-.44.26-.78.62-1.03 1.1a3.61 3.61 0 0 0-.37 1.67c0 .63.13 1.19.37 1.67.25.49.59.85 1.03 1.1.44.26.93.39 1.48.39.55 0 1.05-.13 1.49-.39.44-.25.78-.63 1.03-1.1.24-.47.37-1.02.37-1.65 0-.64-.13-1.2-.37-1.67a2.64 2.64 0 0 0-1.03-1.1 2.88 2.88 0 0 0-1.48-.39 2.77 2.77 0 0 0-1.49.37Z"/></g><defs><clipPath id="a"><path fill="#fff" d="M0 0h117v48H0z"/></clipPath></defs></svg>