<svg width="132" height="43" fill="none" xmlns="http://www.w3.org/2000/svg"><g clip-path="url(#a)" fill="#292F36"><path d="M11.63 0v.19l-.77.18V8.6l.77.19v.18H7.98v-.18l.77-.19v-7l-3.03 7.5h-.38L1.4 1.6v6.8l1.03.39v.18H0v-.18l1.03-.39V.37L.26.2V0h1.6c.24 0 .45.03.62.09a1.6 1.6 0 0 1 .83.57c.1.13.19.28.27.44l2.8 5.35L8.52 1.1A1.82 1.82 0 0 1 9.1.29c.13-.1.29-.18.47-.22.19-.04.42-.07.7-.07h1.37ZM16.2 2.38c.53 0 1.02.08 1.43.23.41.16.77.39 1.07.67.3.3.51.66.67 1.07.16.42.23.9.23 1.43 0 .53-.07 1.01-.23 1.43-.16.41-.38.77-.67 1.07-.3.3-.66.51-1.07.67-.41.16-.9.23-1.43.23-.53 0-1.01-.07-1.43-.23a3.17 3.17 0 0 1-1.07-.67c-.3-.3-.51-.66-.67-1.07-.15-.42-.23-.9-.23-1.43 0-.53.08-1.01.23-1.43.16-.41.39-.77.67-1.07.3-.3.66-.51 1.07-.67a4 4 0 0 1 1.43-.23Zm0 6.56a.8.8 0 0 0 .44-.15c.15-.1.28-.25.39-.5.11-.24.21-.55.29-.95.07-.42.1-.93.1-1.54 0-.63-.03-1.15-.1-1.55-.08-.4-.18-.72-.3-.95-.1-.23-.23-.4-.38-.5a.74.74 0 0 0-.44-.14.8.8 0 0 0-.44.14c-.14.1-.27.25-.39.5-.11.24-.21.55-.28.95-.07.42-.12.93-.12 1.55s.05 1.14.12 1.54c.07.4.17.73.28.95.12.23.25.4.39.5.14.09.28.15.44.15ZM25.84 0c.77 0 1.15.39 1.15 1.16V8.6l.77.18v.19h-1.15c-.32 0-.56-.04-.74-.14a1.4 1.4 0 0 1-.73-.81c-.12.22-.26.4-.43.58-.14.14-.34.27-.59.4a1.8 1.8 0 0 1-.85.18c-.37 0-.72-.07-1.03-.21-.33-.14-.6-.36-.83-.64a3.23 3.23 0 0 1-.55-1.06c-.15-.43-.2-.91-.2-1.48 0-.58.07-1.06.2-1.49.14-.43.32-.77.58-1.06.24-.28.54-.5.89-.64a2.98 2.98 0 0 1 1.77-.14 2.5 2.5 0 0 1 .87.44V.41L24.2.23V.04h1.64V0Zm-.9 3.28a2.27 2.27 0 0 0-.61-.44.76.76 0 0 0-.36-.07.89.89 0 0 0-.46.13c-.14.08-.26.23-.37.44-.1.21-.19.53-.24.91-.06.4-.09.9-.09 1.53 0 .61.03 1.1.09 1.49.05.38.12.68.22.9.09.2.19.37.32.44.11.07.23.11.34.11.2 0 .37-.06.52-.16.14-.1.25-.22.35-.35.12-.16.22-.33.3-.52V3.3h-.01ZM32.06 9.2c-1.1 0-1.96-.3-2.55-.9a3.34 3.34 0 0 1-.92-2.5c0-.53.07-1.02.23-1.43.16-.42.37-.77.64-1.07.27-.3.6-.52 1-.67a3.92 3.92 0 0 1 2.57-.03c.39.14.7.33.97.55a2.37 2.37 0 0 1 .83 1.81l-.01.32-.05.24c-.03.09-.04.16-.07.22-.37.07-.77.14-1.2.18a23.9 23.9 0 0 1-2.71.19c0 .53.04.97.11 1.33.08.35.19.64.32.84.14.21.3.36.48.44a1.79 1.79 0 0 0 1.34-.01 1.87 1.87 0 0 0 .99-.92c.1-.2.14-.4.14-.61h.32c0 .26-.06.5-.17.74-.12.25-.29.46-.5.64-.22.19-.47.33-.77.45-.29.13-.62.18-.99.18Zm-1.28-3.42.77-.01.57-.05.45-.05c.02-.09.05-.19.06-.29l.04-.31c.02-.12.02-.25.02-.37 0-.39-.03-.72-.09-.97a2.24 2.24 0 0 0-.23-.65c-.08-.15-.18-.28-.3-.34a.84.84 0 0 0-.35-.1.57.57 0 0 0-.34.13 1.2 1.2 0 0 0-.32.46c-.08.22-.17.54-.23.95-.05.42-.05.94-.05 1.6ZM40.23 2.83c-.26 0-.49.05-.69.15-.2.1-.37.23-.51.36-.16.16-.29.33-.42.51v4.76l.77.18v.19h-3.6v-.19l.78-.18V2.95l-.77-.18v-.19h1.15a1.63 1.63 0 0 1 1.2.49c.13.14.23.3.29.47.13-.19.28-.36.47-.51.16-.13.35-.25.6-.36.24-.11.51-.16.84-.16.46 0 .8.12 1.03.32.23.21.33.51.33.9 0 .28-.09.52-.26.7a.96.96 0 0 1-.7.25h-.2l-.16-.01-.15-.04v-1.8ZM47.22 4.5c0-.29-.03-.55-.09-.76a1.43 1.43 0 0 0-.22-.51.7.7 0 0 0-.32-.3.78.78 0 0 0-.34-.1c-.2 0-.37.05-.51.15-.15.1-.28.23-.36.36-.12.16-.2.33-.29.51v4.76l.77.18v.19h-3.6v-.19l.78-.18V2.95l-.77-.18v-.19h1.15a1.63 1.63 0 0 1 1.2.49c.13.14.23.3.29.47.11-.21.25-.41.43-.59.14-.14.34-.27.57-.4a2.57 2.57 0 0 1 1.88 0 2.34 2.34 0 0 1 1.3 1.14c.13.26.19.52.19.8v4.1l.77.19v.18h-1.67c-.77 0-1.16-.38-1.16-1.15V4.5ZM1.36 18v-.53h9.92V18l-2.09.53V29.3h7.48V18.53L14.6 18v-.53h9.92V18l-2.08.53V40.8l2.08.52v.53h-9.92v-.54l2.08-.53v-10.6H9.2v10.6l2.09.53v.53H1.36v-.53l2.08-.53V18.51L1.36 18ZM36.84 23.91c1.44 0 2.73.21 3.87.63a7.78 7.78 0 0 1 4.73 4.74c.41 1.14.62 2.42.62 3.87 0 1.44-.21 2.72-.62 3.86a7.78 7.78 0 0 1-4.73 4.73c-1.14.41-2.43.63-3.87.63s-2.72-.22-3.87-.63A7.78 7.78 0 0 1 28.25 37a11.27 11.27 0 0 1-.63-3.86c0-1.45.22-2.73.63-3.87a7.72 7.72 0 0 1 4.72-4.74c1.15-.42 2.43-.63 3.87-.63Zm0 17.74c.4 0 .79-.13 1.19-.38.4-.26.74-.7 1.05-1.34.32-.65.57-1.52.77-2.62.2-1.1.3-2.5.3-4.2 0-1.7-.1-3.1-.3-4.19-.2-1.1-.45-1.97-.77-2.61a3.31 3.31 0 0 0-1.05-1.34 2.12 2.12 0 0 0-1.19-.39c-.4 0-.78.13-1.18.39-.4.25-.74.7-1.06 1.34-.31.64-.57 1.51-.77 2.61-.2 1.1-.3 2.5-.3 4.2 0 1.7.1 3.1.3 4.2.2 1.1.46 1.96.77 2.6.32.65.67 1.1 1.06 1.35.4.25.78.38 1.18.38ZM72.14 29.65c0-.83-.07-1.54-.21-2.1a4.83 4.83 0 0 0-.54-1.38 2.6 2.6 0 0 0-.73-.79 1.57 1.57 0 0 0-.79-.24c-.44 0-.82.14-1.17.43a5.59 5.59 0 0 0-1.61 2.34v12.87l2.1.53v.53h-9.74v-.53l2.09-.53V29.65c0-.83-.07-1.54-.22-2.1a4.83 4.83 0 0 0-.54-1.38 2.6 2.6 0 0 0-.73-.79 1.57 1.57 0 0 0-.78-.24c-.44 0-.83.14-1.17.43a5.59 5.59 0 0 0-1.62 2.34v12.87l2.09.53v.53h-9.74v-.53l2.09-.53v-15.3l-2.09-.53v-.53h3.13a4.28 4.28 0 0 1 3.24 1.32c.34.4.6.82.77 1.28.3-.58.67-1.1 1.11-1.57.4-.4.89-.76 1.46-1.08a4.26 4.26 0 0 1 2.13-.49c1.38 0 2.6.32 3.6.93a6.27 6.27 0 0 1 2.3 2.38c.3-.6.68-1.14 1.12-1.64.4-.41.88-.8 1.46-1.14a4.12 4.12 0 0 1 2.12-.53c.96 0 1.82.16 2.62.46.78.3 1.47.71 2.04 1.24a5.57 5.57 0 0 1 1.8 4.05v11.14l2.08.53v.52h-4.53c-2.08 0-3.12-1.04-3.12-3.12v-9.05h-.02ZM91.29 42.35c-2.97 0-5.29-.81-6.93-2.45-1.64-1.64-2.47-3.89-2.47-6.77 0-1.44.22-2.73.63-3.87a8.6 8.6 0 0 1 1.74-2.9 7.24 7.24 0 0 1 2.7-1.84 9.4 9.4 0 0 1 3.46-.62c1.3 0 2.46.18 3.5.55a8.1 8.1 0 0 1 2.62 1.5 6.4 6.4 0 0 1 2.17 5.77c-.04.24-.07.45-.13.64l-.17.59a62.36 62.36 0 0 1-6.6.9c-1.28.1-2.62.15-4 .15 0 1.44.1 2.64.3 3.6.22.96.5 1.73.88 2.3.37.57.81.97 1.33 1.21.5.24 1.07.37 1.67.37a5.05 5.05 0 0 0 3.56-1.41 5.1 5.1 0 0 0 1.09-1.46c.27-.54.4-1.1.4-1.65h.87c0 .7-.16 1.37-.47 2a5.2 5.2 0 0 1-1.34 1.74c-.59.5-1.27.9-2.09 1.2-.83.3-1.74.45-2.72.45Zm-3.49-9.22c.79 0 1.49-.01 2.09-.06.6-.04 1.11-.07 1.52-.11.49-.04.9-.1 1.26-.17a11.45 11.45 0 0 0 .34-2.61c0-1.05-.08-1.92-.24-2.63a6.51 6.51 0 0 0-.61-1.73 2.49 2.49 0 0 0-.83-.94 1.84 1.84 0 0 0-.93-.29c-.3 0-.61.12-.93.33-.31.23-.58.65-.83 1.26a12.7 12.7 0 0 0-.6 2.6 35.23 35.23 0 0 0-.24 4.35ZM115.85 41.48V27.36l-12.47-9.87v24h12.47ZM131.28 41.48V27.36l-12.27-9.87v24h12.27Z"/></g><defs><clipPath id="a"><path fill="#fff" d="M0 0h132v43H0z"/></clipPath></defs></svg>