<svg width="177" height="50" fill="none" xmlns="http://www.w3.org/2000/svg"><path d="M44.88 39v-.4l.8-.32c.53-.19.88-.44 1.04-.76.19-.32.28-.75.28-1.28V15.36c0-.53-.08-.96-.24-1.28-.16-.32-.52-.57-1.08-.76l-.8-.32v-.4h10.28v.4l-.8.32c-.53.19-.9.44-1.08.76-.16.32-.24.75-.24 1.28v20.88c0 .53.08.96.24 1.28.19.3.55.55 1.08.76l.8.32v.4H44.88Zm11.95 0v-.4l.56-.16c.93-.27 1.4-.92 1.4-1.96V23.96c0-.59-.1-1.01-.28-1.28-.19-.3-.55-.5-1.08-.6l-.6-.16v-.4l6.84-2.32.4.4.32 2.4c.93-.83 1.99-1.5 3.16-2.04a8.36 8.36 0 0 1 3.48-.8c1.76 0 3.1.48 4.04 1.44.96.96 1.44 2.43 1.44 4.4v11.52c0 1.04.5 1.7 1.52 1.96l.36.12v.4h-9.44v-.4l.52-.16c.93-.3 1.4-.95 1.4-1.96V23.72c0-1.7-.85-2.56-2.56-2.56-1.17 0-2.45.59-3.84 1.76v13.6c0 1.04.47 1.7 1.4 1.96l.36.12v.4h-9.4Zm30.53.6c-1.7 0-3.04-.43-4-1.28-.93-.85-1.4-2.21-1.4-4.08V20.56H79.2v-.4l.96-.16a7.32 7.32 0 0 0 2.12-.8 8.44 8.44 0 0 0 1.8-1.4l3.28-3.64h.4l-.12 5.6h4.48v.8H87.6v14.4c0 .93.2 1.64.6 2.12.43.48.96.72 1.6.72.56 0 1.05-.13 1.48-.4.43-.3.85-.68 1.28-1.16l.4.4a5.9 5.9 0 0 1-2.2 2.16c-.93.53-2.07.8-3.4.8Zm16.78-20.44c1.73 0 3.21.36 4.44 1.08a6.93 6.93 0 0 1 2.8 2.88c.66 1.2 1 2.57 1 4.12 0 .3-.02.6-.04.92-.03.3-.08.56-.16.8h-11.92c.02 2.88.53 4.96 1.52 6.24 1.01 1.25 2.5 1.88 4.48 1.88 1.33 0 2.41-.21 3.24-.64a7.92 7.92 0 0 0 2.32-1.88l.4.36a9.15 9.15 0 0 1-3.32 3.44 9.3 9.3 0 0 1-4.92 1.24c-1.9 0-3.58-.4-5.04-1.2a8.74 8.74 0 0 1-3.44-3.52 11.23 11.23 0 0 1-1.24-5.44c0-2.19.48-4.04 1.44-5.56a9.68 9.68 0 0 1 3.68-3.52c1.52-.8 3.1-1.2 4.76-1.2Zm-.12.8c-.78 0-1.44.24-2 .72-.54.45-.96 1.28-1.28 2.48-.3 1.17-.46 2.84-.48 5h6.84c.26-2.9.16-5-.32-6.28a2.72 2.72 0 0 0-2.76-1.92ZM114.37 39v-.4l.6-.16c.53-.16.9-.4 1.08-.72.21-.32.32-.73.32-1.24V23.96c0-.59-.1-1.01-.32-1.28-.19-.3-.55-.5-1.08-.6l-.6-.16v-.4l6.88-2.32.4.4.36 3.44v.32a8.36 8.36 0 0 1 3.44-3.6c.75-.4 1.48-.6 2.2-.6 1.01 0 1.79.28 2.32.84.53.56.8 1.27.8 2.12 0 .9-.27 1.61-.8 2.12-.5.48-1.12.72-1.84.72-1.12 0-2.1-.56-2.96-1.68l-.08-.08c-.27-.37-.57-.57-.92-.6-.35-.05-.67.1-.96.48-.27.24-.5.53-.68.88-.16.32-.32.7-.48 1.12v11.16c0 1.07.47 1.73 1.4 2l1.28.36v.4h-10.36Zm17.66 0v-.4l.56-.16c.93-.27 1.4-.92 1.4-1.96V23.96c0-.59-.1-1.01-.28-1.28-.19-.3-.55-.5-1.08-.6l-.6-.16v-.4l6.84-2.32.4.4.32 2.4c.93-.83 1.98-1.5 3.16-2.04a8.36 8.36 0 0 1 3.48-.8c1.76 0 3.1.48 4.04 1.44.96.96 1.44 2.43 1.44 4.4v11.52c0 1.04.5 1.7 1.52 1.96l.36.12v.4h-9.44v-.4l.52-.16c.93-.3 1.4-.95 1.4-1.96V23.72c0-1.7-.86-2.56-2.56-2.56-1.18 0-2.46.59-3.84 1.76v13.6c0 1.04.46 1.7 1.4 1.96l.36.12v.4h-9.4Zm33.24.6c-2.03 0-3.78-.41-5.28-1.24a8.87 8.87 0 0 1-3.48-3.6c-.8-1.55-1.2-3.36-1.2-5.44 0-2.08.43-3.88 1.28-5.4a9.2 9.2 0 0 1 3.56-3.52 10.54 10.54 0 0 1 5.12-1.24c1.9 0 3.59.41 5.08 1.24 1.5.8 2.67 1.96 3.52 3.48a10.68 10.68 0 0 1 1.32 5.44c0 2.1-.41 3.93-1.24 5.48a8.68 8.68 0 0 1-3.44 3.56 10.5 10.5 0 0 1-5.24 1.24Zm0-.8c.94 0 1.68-.27 2.24-.8.56-.53.96-1.48 1.2-2.84.27-1.36.4-3.28.4-5.76 0-2.5-.13-4.44-.4-5.8-.24-1.36-.64-2.3-1.2-2.84-.56-.53-1.3-.8-2.24-.8-.93 0-1.7.27-2.28.8-.56.53-.97 1.48-1.24 2.84-.24 1.36-.36 3.3-.36 5.8 0 2.48.12 4.4.36 5.76.27 1.36.68 2.3 1.24 2.84.59.53 1.35.8 2.28.8Z" fill="#292F36"/><path d="M0 42h13.46v-9.5a3.64 3.64 0 1 1 7.29 0V42H34V8A34 34 0 0 0 0 42Z" fill="#CDA274"/></svg>