<svg width="103" height="103" fill="none" xmlns="http://www.w3.org/2000/svg"><g clip-path="url(#a)"><path d="M51.16 101.6a50.45 50.45 0 1 0 0-100.89 50.45 50.45 0 0 0 0 100.9Z" fill="#fff"/><path d="M51.16 102.32A51.22 51.22 0 0 1 0 51.16 51.22 51.22 0 0 1 51.16 0a51.22 51.22 0 0 1 51.16 51.16 51.22 51.22 0 0 1-51.16 51.16Zm0-100.9A49.79 49.79 0 0 0 1.43 51.17a49.79 49.79 0 0 0 49.73 49.73 49.79 49.79 0 0 0 49.73-49.73A49.79 49.79 0 0 0 51.16 1.43Z" fill="#292F36"/><path d="M58.35 5.84c.35.03.65.04.89.04l-.03.23c-.4.06-.74.36-1.01.93l-3.4 6.8-.1-.02-.09-.02-2.15-7.58c-.14-.5-.39-.77-.73-.81l.03-.23c.31.06.73.1 1.24.16.67.06 1.17.1 1.5.1l-.03.23c-.3-.02-.51 0-.64.04s-.2.16-.21.3c-.02.13.01.31.08.56l1.59 5.8 2.35-4.75c.2-.38.3-.7.33-.93.03-.24-.04-.42-.2-.55-.16-.13-.41-.2-.76-.24l.03-.23c.41.07.86.13 1.31.17ZM67.95 8.85a.4.4 0 0 0-.35.17c-.08.12-.18.3-.28.57l-2.04 5.43c-.1.27-.16.48-.16.62 0 .15.04.26.14.35.1.08.29.18.55.3l-.09.21a41.37 41.37 0 0 0-2.78-1.05l.08-.22c.27.09.47.13.6.13s.26-.06.34-.17c.09-.12.19-.3.29-.57l2.04-5.43c.1-.27.16-.48.16-.63a.42.42 0 0 0-.14-.34c-.1-.08-.29-.18-.55-.3l.09-.21a43.58 43.58 0 0 0 2.78 1.04l-.08.21a1.6 1.6 0 0 0-.6-.11ZM80.65 16.4a.55.55 0 0 0-.41.1c-.13.09-.29.26-.46.5l-4.14 5.61-.21-.16.55-9.02-3.67 4.97c-.17.24-.28.44-.34.6-.05.16-.03.3.04.44.08.14.25.3.49.5l-.14.19a20.6 20.6 0 0 0-1.84-1.36l.14-.18c.23.15.41.24.56.25.14.03.28-.01.4-.1.14-.1.3-.25.47-.5l3.37-4.56c.17-.25.28-.43.32-.56a.43.43 0 0 0-.04-.37 2.09 2.09 0 0 0-.44-.45l.14-.18c.19.17.47.4.86.67.28.21.53.39.75.51l-.45 7.57 2.97-4.03c.17-.24.3-.44.34-.6a.6.6 0 0 0-.04-.44 1.71 1.71 0 0 0-.49-.5l.14-.18a20.6 20.6 0 0 0 1.84 1.35l-.14.19a1.68 1.68 0 0 0-.57-.26ZM85.43 22.84c.37-.27.76-.57 1.17-.94a170.34 170.34 0 0 0 3.81 5.37 13.6 13.6 0 0 0-2.03 1.38l-.15-.22c.46-.4.77-.72.96-.97.18-.24.25-.5.24-.77-.01-.27-.19-.6-.46-1l-.37-.51-5.4 3.85c-.27.19-.45.36-.54.49a.5.5 0 0 0-.05.46c.04.15.17.38.35.67l-.18.14c-.22-.34-.54-.83-.97-1.41-.46-.65-.8-1.1-1.03-1.39l.19-.14c.2.27.38.46.52.56.15.1.29.12.45.08.15-.04.37-.15.62-.34l5.41-3.85-.37-.52c-.28-.4-.54-.64-.78-.76a1.03 1.03 0 0 0-.8-.02c-.29.1-.7.28-1.23.58l-.16-.21c.22-.12.47-.29.8-.53ZM88.17 42.65l-.22.07c-.09-.31-.2-.71-.38-1.2a27.3 27.3 0 0 0-.51-1.4l.23-.08c.1.27.21.47.3.57.1.1.23.13.37.07.13-.04.29-.14.47-.3l1.58-1.3-.9-2.67-1.32-.05c-.43-.03-.76 0-.99.08-.23.09-.37.22-.42.4-.05.19-.02.46.08.79l-.23.07c-.11-.43-.25-.86-.4-1.29-.11-.32-.21-.6-.31-.8l.23-.08c.2.34.63.53 1.25.54l7.6.34.05.18-6.05 5.03c-.37.36-.51.69-.43 1.03Zm4.96-6.06-3.74-.16.84 2.51 2.9-2.35ZM89.22 53.57c.14-.05.21-.13.21-.23 0-.05-.01-.1-.04-.14a5.1 5.1 0 0 0-.17-.24 3.38 3.38 0 0 1-.49-.84 4.14 4.14 0 0 1 .29-3.04c.32-.59.78-1.03 1.4-1.35a5.03 5.03 0 0 1 2.24-.48 5.3 5.3 0 0 1 2.35.44 3.47 3.47 0 0 1 2.14 3.24c0 .32-.03.6-.08.84-.06.25-.15.46-.25.65-.1.18-.22.4-.4.62-.07.1-.11.19-.11.25 0 .14.24.24.71.28v.27c-.5-.02-1.4-.02-2.68 0v-.27c.41-.07.76-.15 1.03-.24s.5-.21.7-.37c.27-.23.5-.53.65-.9.16-.37.23-.74.23-1.14a2.03 2.03 0 0 0-.53-1.34 3.36 3.36 0 0 0-1.44-.89c-.63-.2-1.34-.3-2.17-.28-.94 0-1.7.12-2.3.34-.6.21-1.02.53-1.3.94-.3.41-.42.94-.4 1.58 0 .48.13.87.38 1.22.1.14.18.23.28.27.09.04.22.06.37.06l1.13-.02c.33 0 .56-.04.72-.1a.49.49 0 0 0 .3-.34c.05-.16.08-.41.08-.76h.23a28.28 28.28 0 0 0 .04 2.87h-.23a.92.92 0 0 0-.1-.38c-.04-.08-.14-.13-.27-.16s-.34-.04-.64-.03l-2.31.04v-.22c.13-.06.28-.09.43-.15ZM87.52 65.72c-.42-.13-.9-.26-1.46-.37.19-.5.46-1.34.84-2.54.46-1.43.79-2.51.99-3.24l.23.07c-.07.27-.1.47-.1.61.01.15.07.25.18.33.12.09.32.17.59.26l5.52 1.74c.29.09.49.13.63.13a.4.4 0 0 0 .34-.17c.09-.12.17-.3.27-.56l.23.07c-.25.73-.6 1.8-1.05 3.23a44.3 44.3 0 0 0-.7 2.34 11.57 11.57 0 0 0-2-.67l.08-.26c.5.1.89.14 1.15.14.25 0 .47-.08.64-.25a2 2 0 0 0 .44-.83l.29-.93c.08-.27.12-.47.11-.6a.44.44 0 0 0-.17-.33c-.12-.08-.3-.17-.59-.25l-2.62-.83-.23.74c-.12.37-.09.66.1.86.18.2.38.34.61.44l.43.2-.09.26c-.35-.15-.7-.28-1.04-.38l-.53-.15c-.37-.12-.9-.27-1.6-.43l.1-.26.55.12c.31.05.58.03.8-.09.21-.11.35-.33.45-.63l.23-.74-2.68-.84a2.4 2.4 0 0 0-.63-.13.37.37 0 0 0-.33.17c-.08.12-.17.3-.25.57l-.26.82c-.14.47-.2.84-.14 1.1.04.3.18.52.42.72.25.19.62.4 1.12.63l-.09.26c-.17-.13-.44-.22-.78-.33ZM83.45 83.23a.46.46 0 0 0-.02-.38c-.05-.13-.2-.29-.4-.5l-4.2-4.01c-.22-.2-.4-.33-.52-.39a.45.45 0 0 0-.39 0c-.12.06-.28.19-.48.39l-.17-.16c.27-.24.61-.6 1.05-1.04l1.02-1.1.17.16c-.19.21-.3.38-.36.5a.46.46 0 0 0 .02.38c.05.13.2.29.41.5l4.2 4.01c.21.2.38.33.51.39s.26.06.39 0 .28-.19.48-.39l.17.16c-.24.21-.6.57-1.05 1.06-.45.45-.77.82-1 1.1l-.17-.16c.17-.22.28-.39.34-.52ZM71.56 91.94c.08-.13.1-.25.07-.41a2.22 2.22 0 0 0-.29-.63l-3.54-6 .23-.15 8.08 4.04L73 83.48a2.1 2.1 0 0 0-.42-.55.59.59 0 0 0-.43-.12c-.15.01-.37.1-.64.24l-.13-.2a13.77 13.77 0 0 0 1.96-1.16l.11.2c-.23.15-.38.29-.45.42a.52.52 0 0 0-.08.41c.03.16.13.36.29.63l2.88 4.9c.15.25.27.42.39.5.11.1.23.14.37.1.13-.02.33-.1.57-.22l.11.2a17.12 17.12 0 0 0-1.72 1.01l-6.78-3.38 2.54 4.31c.16.26.28.44.41.54.12.1.26.15.43.13.17-.01.39-.1.66-.24l.11.2a13.75 13.75 0 0 0-1.96 1.16l-.1-.2c.2-.16.36-.3.45-.42ZM63.7 93.81c.1.44.24.93.4 1.44-.64.12-1.7.35-3.22.66-1.51.33-2.57.57-3.2.73a16.13 16.13 0 0 0-.48-2.41l.25-.06c.2.58.36 1 .52 1.27.16.27.36.44.61.53.26.08.63.07 1.1-.03l.62-.13-1.4-6.5a1.85 1.85 0 0 0-.25-.67c-.1-.12-.21-.2-.38-.22-.17-.03-.43 0-.77.05l-.05-.22c.4-.06.98-.18 1.69-.33.76-.17 1.33-.3 1.68-.4l.05.23c-.35.08-.57.17-.72.25a.53.53 0 0 0-.25.37c-.03.16-.02.4.05.72l1.4 6.5.62-.14c.47-.1.8-.24 1-.42.2-.19.32-.43.35-.73.03-.3.02-.76-.06-1.36l.26-.06c.04.23.1.55.19.93ZM44.76 89.8c.05-.44.06-.94.06-1.5.53.07 1.42.16 2.67.27 1.49.13 2.61.23 3.38.27l-.01.23a1.8 1.8 0 0 0-.61.05.44.44 0 0 0-.29.24c-.06.13-.1.34-.13.63l-.51 5.78c-.03.28-.02.5.01.64a.4.4 0 0 0 .25.3c.12.06.32.11.6.14l-.02.23a132.35 132.35 0 0 0-5.8-.51c.1-.5.16-.96.2-1.37.02-.3.03-.55.02-.73l.27.03c.01.51.04.88.11 1.14.06.26.19.44.39.57.19.13.5.21.9.24l.97.09a2 2 0 0 0 .61-.02.4.4 0 0 0 .29-.24c.06-.13.1-.34.13-.63l.24-2.74-.77-.07c-.39-.03-.66.06-.81.29a2 2 0 0 0-.3.7l-.1.47-.27-.03.14-1.1.04-.56.09-1.65.27.03.01.57c.02.33.09.58.26.75.16.19.4.29.71.32l.77.07.25-2.8c.02-.28.01-.5-.02-.64a.4.4 0 0 0-.24-.29c-.13-.05-.33-.1-.6-.13l-.86-.07a2.43 2.43 0 0 0-1.12.1c-.26.1-.46.3-.6.57-.15.28-.26.69-.38 1.23l-.27-.03c0-.21.03-.5.07-.84ZM33.53 84.5c.21-.04.46 0 .71.12.3.13.5.31.62.56a2 2 0 0 1 .06 1.08l-.22 1.17a9.2 9.2 0 0 0-.13.97c-.01.23.05.44.15.63.1.19.28.33.55.44l1.03.43 1.04-2.48c.12-.27.17-.47.19-.62a.43.43 0 0 0-.15-.35c-.1-.1-.27-.2-.52-.32l.08-.21a28.16 28.16 0 0 0 2.76 1.14l-.09.21c-.27-.1-.47-.14-.6-.15-.14 0-.25.04-.34.15-.1.1-.2.29-.31.56l-2.25 5.35c-.11.28-.17.48-.18.62-.02.14.04.26.14.35.1.1.27.2.53.33l-.09.22c-.3-.15-.72-.35-1.3-.59l-.92-.38-.7-.29c-.56-.24-1-.51-1.33-.84a2.12 2.12 0 0 1-.6-1.04c-.08-.37-.04-.73.11-1.09a2.14 2.14 0 0 1 1.54-1.26c.4-.08.9-.07 1.42.06l-.13-.07a2.3 2.3 0 0 1-.67-.57 1.3 1.3 0 0 1-.27-.63c-.04-.23-.03-.51.03-.85l.2-1.22c.04-.24.07-.43.07-.57a.78.78 0 0 0-.06-.34.35.35 0 0 0-.21-.19.45.45 0 0 0-.33-.02c-.1.02-.24.1-.43.2l-.11-.2c.25-.15.5-.26.71-.3Zm.71 5.09c-.34.04-.6.17-.82.38-.22.22-.4.5-.56.87-.24.59-.3 1.1-.14 1.52.15.41.54.75 1.18 1.02.23.1.4.15.54.13.13 0 .25-.05.35-.17.1-.11.2-.3.3-.56l1.11-2.65-.73-.3c-.47-.2-.88-.29-1.23-.24ZM22.4 86.45c.13.04.25.01.37-.06.11-.07.27-.23.45-.46l3.59-4.57c.18-.22.3-.4.34-.54a.43.43 0 0 0-.04-.37 2.3 2.3 0 0 0-.43-.46l.14-.18a25.52 25.52 0 0 0 2.34 1.84l-.14.19a1.63 1.63 0 0 0-.54-.3.39.39 0 0 0-.37.05c-.12.07-.27.23-.46.46l-3.58 4.57c-.19.23-.3.41-.35.54a.43.43 0 0 0 .05.37c.07.12.21.27.43.46l-.15.18a42.78 42.78 0 0 0-2.34-1.84l.14-.18c.25.15.42.25.55.3ZM13.18 76.28c-.06-.64.08-1.28.4-1.9.35-.62.87-1.18 1.58-1.7.7-.5 1.4-.84 2.13-.96a3.4 3.4 0 0 1 3.6 1.4 3.36 3.36 0 0 1 .33 3.77 5.32 5.32 0 0 1-1.58 1.7c-.7.5-1.4.83-2.13.96a3.46 3.46 0 0 1-3.6-1.38 3.77 3.77 0 0 1-.73-1.89Zm2.14 2.54c.5.1 1.07.06 1.7-.14.62-.2 1.25-.53 1.9-1.01a5.96 5.96 0 0 0 1.54-1.53c.37-.54.57-1.08.6-1.6.04-.51-.1-.97-.36-1.35-.3-.4-.69-.66-1.2-.76a3.4 3.4 0 0 0-1.7.14c-.63.2-1.26.53-1.91 1-.66.47-1.17.99-1.53 1.54a3.29 3.29 0 0 0-.61 1.6c-.05.52.08.97.35 1.36.3.4.7.65 1.22.75ZM14.27 59.1c.18.13.3.34.39.62.1.3.09.59-.03.83-.11.26-.38.5-.8.74l-1.04.59c-.36.21-.63.39-.81.53-.19.14-.32.31-.39.51s-.07.43.02.72l.32 1.07 2.57-.8c.29-.09.47-.17.59-.26.11-.09.17-.2.18-.33.02-.13-.02-.34-.1-.61l.23-.07c.09.34.22.82.42 1.42.2.65.35 1.12.47 1.42l-.23.07a2 2 0 0 0-.27-.56.45.45 0 0 0-.34-.17c-.15 0-.36.03-.63.13l-5.54 1.71c-.29.09-.47.17-.59.26a.46.46 0 0 0-.18.33c-.02.14.03.34.1.61l-.23.07c-.07-.31-.2-.77-.39-1.37-.08-.28-.2-.61-.31-.95l-.24-.72a3.92 3.92 0 0 1-.2-1.55c.04-.46.18-.83.41-1.13.23-.3.53-.5.9-.62a2.1 2.1 0 0 1 1.96.37 3 3 0 0 1 .87 1.13l-.02-.14a2.6 2.6 0 0 1 0-.88c.06-.25.16-.45.3-.62.16-.17.39-.36.69-.53l1.05-.62c.22-.12.39-.23.49-.32.1-.08.18-.17.23-.26a.4.4 0 0 0 .01-.28.49.49 0 0 0-.18-.27 2.05 2.05 0 0 0-.43-.2l.07-.22c.28.1.53.22.68.35Zm-3.4 3.82a1.4 1.4 0 0 0-.84-.38 2.5 2.5 0 0 0-1.02.14c-.62.19-1.03.48-1.26.87-.23.39-.23.91-.03 1.56.07.22.16.4.25.5.08.1.2.15.35.15.14 0 .36-.04.62-.11l2.74-.86-.23-.75a2.39 2.39 0 0 0-.59-1.12ZM13.18 45.55c.54-.24.87-.7 1-1.38.05-.26.05-.52-.02-.76a1.4 1.4 0 0 0-.4-.64c-.2-.19-.47-.32-.83-.37-.3-.06-.57-.03-.83.07-.25.1-.5.25-.75.47-.24.21-.53.5-.84.85-.36.4-.67.73-.95.96-.27.24-.57.41-.9.54-.32.13-.7.15-1.1.07a1.99 1.99 0 0 1-1.05-.5 1.9 1.9 0 0 1-.53-.9 2.72 2.72 0 0 1-.01-1.14c.04-.24.1-.42.17-.6.07-.17.14-.3.23-.4.08-.1.17-.21.28-.32.14-.16.22-.27.24-.36.02-.07-.01-.13-.08-.19-.07-.05-.2-.1-.37-.15l.04-.26c.44.11 1.21.29 2.34.5l-.04.26c-.4-.05-.77-.03-1.14.05-.36.07-.67.23-.93.47-.26.23-.43.56-.5.96-.06.27-.04.51.03.76.07.24.2.43.37.58.18.16.4.26.66.32.41.07.77.01 1.07-.19.3-.2.58-.46.85-.76l.55-.6c.4-.42.72-.75 1-1 .27-.24.57-.4.9-.52.32-.12.68-.13 1.06-.06.48.09.86.27 1.15.54.28.29.47.62.57 1.02.1.4.1.82.01 1.28a2.69 2.69 0 0 1-.73 1.5 1.1 1.1 0 0 0-.24.36c-.01.07.02.13.09.18.07.06.2.12.37.16l-.05.26c-.4-.12-1.32-.3-2.74-.56l.05-.26c.8.07 1.45 0 2-.24ZM10.35 33.52c-.4-.22-.86-.42-1.37-.62.31-.55.84-1.52 1.55-2.9a87.04 87.04 0 0 0 1.49-2.94c.47.3.9.56 1.28.76.35.19.65.32.87.41l-.12.25c-.58-.23-1-.37-1.3-.42-.3-.05-.57 0-.8.15a2.1 2.1 0 0 0-.67.85l-.29.57 5.9 3.07c.28.16.51.23.67.25.15.01.3-.03.43-.15.12-.11.27-.33.44-.63l.21.12a50.02 50.02 0 0 0-1.6 3.05l-.21-.11c.14-.31.24-.56.26-.71a.5.5 0 0 0-.13-.45c-.12-.13-.3-.25-.59-.41l-5.9-3.08-.3.55a2.1 2.1 0 0 0-.3 1.04c0 .28.12.52.34.73.21.22.57.5 1.08.83l-.13.24-.81-.45ZM20.43 17.12c.24-.25.44-.48.58-.65l.17.17a.86.86 0 0 0-.11.53c.01.22.07.52.18.87l1.3 3.87 1.52 1.5c.21.2.37.34.5.4.12.06.25.06.38 0s.29-.19.5-.37l.17.17a28.2 28.2 0 0 0-2.1 2.11l-.17-.17c.19-.21.32-.37.37-.5a.41.41 0 0 0-.01-.38 2 2 0 0 0-.4-.5l-1.26-1.25-4.76-1.4c-.29-.08-.5-.1-.65-.1a.5.5 0 0 0-.31.13l-.17-.17c.23-.2.48-.42.74-.7.53-.54.91-.92 1.13-1.18l.17.17c-.39.39-.47.69-.26.9.09.09.2.14.37.2L22.33 22l-1.06-3.15a2.36 2.36 0 0 0-.49-.93c-.15-.16-.32-.2-.51-.14-.19.05-.4.2-.66.44l-.17-.17.99-.94ZM29.06 11.36a.43.43 0 0 0-.1.37c.03.15.1.35.25.6l2.75 5.11c.14.26.26.43.37.53.1.1.23.13.36.12.13-.02.33-.1.57-.23l.76-.42c.42-.22.72-.47.88-.71.16-.24.22-.51.17-.84a5.22 5.22 0 0 0-.4-1.29l.25-.13c.1.23.24.52.42.86.22.39.47.81.79 1.29-.47.22-1.27.64-2.37 1.24-1.31.71-2.31 1.25-2.97 1.64l-.11-.2c.24-.14.41-.27.5-.37.08-.1.12-.23.1-.37-.03-.15-.1-.35-.25-.6l-2.78-5.11a2.03 2.03 0 0 0-.37-.53.42.42 0 0 0-.36-.12c-.14.02-.33.09-.58.22l-.1-.22c.3-.12.74-.35 1.32-.68a26 26 0 0 0 1.29-.73l.11.2c-.24.14-.4.27-.5.37ZM46.45 12.28c.08.42.21.91.37 1.45a116.43 116.43 0 0 0-5.95 1.17l-.04-.23c.27-.07.47-.12.58-.21a.42.42 0 0 0 .2-.31c.01-.15 0-.36-.06-.65l-1.11-5.7a1.8 1.8 0 0 0-.2-.6c-.09-.13-.17-.2-.31-.22a1.9 1.9 0 0 0-.62.03l-.04-.23c.76-.13 1.87-.33 3.32-.61 1.13-.23 1.93-.39 2.39-.5a14.59 14.59 0 0 0 .36 2.07l-.26.05c-.16-.48-.3-.84-.43-1.07a.93.93 0 0 0-.53-.44 1.9 1.9 0 0 0-.94.02l-.96.18a2 2 0 0 0-.58.19.45.45 0 0 0-.22.31c-.01.14 0 .36.06.64l.53 2.71.76-.15c.38-.07.61-.24.7-.5.08-.26.11-.5.1-.74l-.03-.48.25-.05c.05.38.1.74.18 1.08l.11.54c.07.4.2.93.39 1.62l-.26.06-.17-.55c-.1-.31-.25-.53-.46-.65a1.05 1.05 0 0 0-.77-.1l-.76.14.55 2.75c.05.29.1.49.18.62.07.11.17.18.31.21.13.02.35 0 .62-.06l.84-.17c.47-.1.83-.22 1.06-.4.23-.17.35-.41.41-.71s.06-.73.02-1.28l.25-.06.16.83Z" fill="#292F36"/><path d="M36.83 66.79a16.8 16.8 0 0 1-1.73-2.93 20 20 0 0 1-1.2-3.26c-.65-4.9-.67-9.65-.05-14.27a84.83 84.83 0 0 1 2.98-13.63c.23-.5.73-.74 1.5-.74s1.52.17 2.3.51c.77.35 1.4.8 1.9 1.37.5.58.6 1.18.34 1.79-.43.91-.85 2.15-1.26 3.7a93.19 93.19 0 0 0-2.83 16.9 44.33 44.33 0 0 0-.08 5.08c.07 1.51.3 2.71.68 3.58a77.99 77.99 0 0 0 4.94-7.5c1.5-2.58 2.9-5.19 4.21-7.86a180.1 180.1 0 0 0 3.76-8.06l3.5-8.04c.57-1.34 1.14-2.75 1.7-4.24.55-1.5 1.28-2.77 2.2-3.84.4-.34.7-.46.9-.34.2.11.35.33.42.66.07.32.11.67.11 1.02v.83c-.27 1.76-.5 3.5-.68 5.23-.19 1.72-.6 3.38-1.2 5-1 2.52-2.01 5.02-3.07 7.51a136.9 136.9 0 0 1-3.38 7.36 92.92 92.92 0 0 1-3.9 7.02 61.8 61.8 0 0 1-4.57 6.5c-1.3 1.65-2.6 2.52-3.87 2.62-1.32.11-2.5-.56-3.62-1.97ZM60.47 60.31a110.4 110.4 0 0 1-2.27-3.27 6.45 6.45 0 0 1-1.12-3.67c0-1.48.43-2.9 1.29-4.22a11.78 11.78 0 0 1 2.95-3.19c.46-.3.93-.55 1.4-.74.47-.18.99-.17 1.53.06.23.11.47.2.71.26a3.11 3.11 0 0 1 1.28.54c.24.16.35.35.35.63 0 1.07.03 1.94.09 2.6a12.08 12.08 0 0 0 .6 3l.34 1.16c.07.39.06.72-.06.97-.11.27-.4.3-.86.12a3.17 3.17 0 0 1-1.87-1.84c-.4-.93-.7-1.76-.88-2.53a7.4 7.4 0 0 0-.29-.8 8.74 8.74 0 0 1-.28-.8c-.3-.07-.67.03-1.09.31a4.17 4.17 0 0 0-1.74 2.9c-.1.66.03 1.3.37 1.96.16.23.38.51.66.83.29.32.57.65.86 1l.85 1c.29.3.53.58.72.76.23.23.38.36.45.38.08.01.28-.03.57-.15.39-.18.98-.44 1.76-.74.79-.3 1.61-.61 2.47-.91.86-.3 1.68-.56 2.47-.77a7.36 7.36 0 0 1 1.81-.32c.27 0 .46.1.57.29.12.11.1.27-.05.45-.16.2-.36.39-.6.58-.25.18-.52.35-.77.51l-.52.29c-.65.38-1.47.8-2.47 1.3-1 .47-1.85.94-2.58 1.4-.07.06-.22.15-.43.22s-.37.16-.48.23c.45 1.03.78 1.93.97 2.67.18.74.25 1.46.2 2.15-.06.69-.2 1.39-.43 2.1-.23.72-.54 1.53-.92 2.44-.54.89-1.08 1.73-1.64 2.53-.55.8-1.17 1.53-1.87 2.18a8.28 8.28 0 0 1-2.24 1.55 6.2 6.2 0 0 1-4.2.37c-.5-.13-.9-.42-1.25-.83-.89-.96-1.37-2-1.49-3.13a9.21 9.21 0 0 1 .29-3.35c.23-.69.51-1.31.86-1.9a17.76 17.76 0 0 1 2.78-3.7 51.1 51.1 0 0 1 3.2-2.88Zm1.95 2.58c-.43.43-1 1.03-1.72 1.82-.73.78-1.4 1.64-2.05 2.55-.62.92-1.14 1.83-1.54 2.73-.4.9-.5 1.67-.31 2.32a8.24 8.24 0 0 0 2.35-1.7 15.4 15.4 0 0 0 2.13-2.58 9.68 9.68 0 0 0 1.29-2.78c.24-.93.2-1.71-.15-2.36Z" fill="#292F36" stroke="#fff" stroke-miterlimit="10"/><path d="M51.16 83.55a32.43 32.43 0 0 1-32.39-32.39 32.43 32.43 0 0 1 32.39-32.39 32.43 32.43 0 0 1 32.39 32.39 32.43 32.43 0 0 1-32.39 32.39Zm0-63.35A31 31 0 0 0 20.2 51.16a31 31 0 0 0 30.96 30.96 31 31 0 0 0 30.96-30.96A31 31 0 0 0 51.16 20.2Z" fill="#292F36"/></g><defs><clipPath id="a"><path fill="#fff" d="M0 0h103v103H0z"/></clipPath></defs></svg>